HIERARCHY
ROOT joint_Root
{
	OFFSET 0.0 0.0 0.0
	CHANNELS 6 Xposition Yposition Zposition Zrotation Xrotation Yrotation 
	JOINT Hips
	{
		OFFSET 4.5925 91.4895 -427.239
		CHANNELS 6 Xposition Yposition Zposition Zrotation Xrotation Yrotation 
		JOINT Spine
		{
			OFFSET 15.7357 0.0 0.0
			CHANNELS 6 Xposition Yposition Zposition Zrotation Xrotation Yrotation 
			JOINT Chest
			{
				OFFSET 8.98455 -0.406207 0.0
				CHANNELS 6 Xposition Yposition Zposition Zrotation Xrotation Yrotation 
				JOINT Neck
				{
					OFFSET 16.3773 0.0 0.0
					CHANNELS 6 Xposition Yposition Zposition Zrotation Xrotation Yrotation 
					JOINT Head
					{
						OFFSET 6.45672 0.0 0.0
						CHANNELS 6 Xposition Yposition Zposition Zrotation Xrotation Yrotation 
						End Site
						{
							OFFSET 0.0 0.0 0.0
						}
					}
				}
				JOINT Shoulder_L
				{
					OFFSET 12.9942 -0.242716 4.98039
					CHANNELS 6 Xposition Yposition Zposition Zrotation Xrotation Yrotation 
					JOINT UpperArm_L
					{
						OFFSET 5.34809 0.0 0.0
						CHANNELS 6 Xposition Yposition Zposition Zrotation Xrotation Yrotation 
						JOINT LowerArm_L
						{
							OFFSET 24.3286 1.87007e-05 0.0
							CHANNELS 6 Xposition Yposition Zposition Zrotation Xrotation Yrotation 
							JOINT Hand_L
							{
								OFFSET 22.2916 0.0 0.0
								CHANNELS 6 Xposition Yposition Zposition Zrotation Xrotation Yrotation 
								End Site
								{
									OFFSET 0.0 0.0 0.0
								}
							}
						}
					}
				}
				JOINT Shoulder_R
				{
					OFFSET 12.9945 -0.242716 -4.98039
					CHANNELS 6 Xposition Yposition Zposition Zrotation Xrotation Yrotation 
					JOINT UpperArm_R
					{
						OFFSET -5.34813 0.0 0.0
						CHANNELS 6 Xposition Yposition Zposition Zrotation Xrotation Yrotation 
						JOINT LowerArm_R
						{
							OFFSET -24.3289 0.000322201 0.0
							CHANNELS 6 Xposition Yposition Zposition Zrotation Xrotation Yrotation 
							JOINT Hand_R
							{
								OFFSET -22.2915 -0.000108084 0.0
								CHANNELS 6 Xposition Yposition Zposition Zrotation Xrotation Yrotation 
								End Site
								{
									OFFSET 0.0 0.0 0.0
								}
							}
						}
					}
				}
			}
		}
		JOINT UpperLeg_L
		{
			OFFSET -2.19248 -6.46944 0.0
			CHANNELS 6 Xposition Yposition Zposition Zrotation Xrotation Yrotation 
			JOINT LowerLeg_L
			{
				OFFSET 39.0811 0.0 -1.23785e-05
				CHANNELS 6 Xposition Yposition Zposition Zrotation Xrotation Yrotation 
				JOINT Foot_L
				{
					OFFSET 40.9854 0.0 -1.26872e-05
					CHANNELS 6 Xposition Yposition Zposition Zrotation Xrotation Yrotation 
					JOINT Toes_L
					{
						OFFSET 11.7543 0.0 0.0
						CHANNELS 6 Xposition Yposition Zposition Zrotation Xrotation Yrotation 
						End Site
						{
							OFFSET 0.0 0.0 0.0
						}
					}
				}
			}
		}
		JOINT UpperLeg_R
		{
			OFFSET -2.19251 6.46944 0.0
			CHANNELS 6 Xposition Yposition Zposition Zrotation Xrotation Yrotation 
			JOINT LowerLeg_R
			{
				OFFSET -39.0811 -0.00228153 -0.0401928
				CHANNELS 6 Xposition Yposition Zposition Zrotation Xrotation Yrotation 
				JOINT Foot_R
				{
					OFFSET -40.9854 0.0 0.0
					CHANNELS 6 Xposition Yposition Zposition Zrotation Xrotation Yrotation 
					JOINT Toes_R
					{
						OFFSET -11.7543 0.0 0.0
						CHANNELS 6 Xposition Yposition Zposition Zrotation Xrotation Yrotation 
						End Site
						{
							OFFSET 0.0 0.0 0.0
						}
					}
				}
			}
		}
	}
}
MOTION
Frames:	6
Frame Time:	0.0333333
0.000000 0.000000 0.000000 0.000000 0.000000 -0.000000 133.256000 86.011900 154.600000 101.794000 -48.123800 13.505500 15.735700 0.000005 -0.000001 97.270400 84.586600 -97.648600 8.984550 -0.406207 -0.000000 2.979160 1.384580 -0.791502 16.377300 -0.000001 -0.000001 -2.182830 -6.620500 3.207320 6.456720 -0.000001 -0.000000 -8.983860 -9.248580 6.302410 12.994200 -0.242716 4.980390 -90.958600 3.196570 -73.296800 5.348090 -0.000007 -0.000001 -77.574900 23.857500 9.948450 24.328600 0.000019 0.000005 -0.000166 33.667100 -0.000004 22.291600 -0.000001 0.000005 -0.426852 5.100650 5.099570 12.994500 -0.242716 -4.980390 88.725000 9.295990 -82.154900 -5.348130 -0.000001 -0.000004 -49.986300 48.416200 -34.333900 -24.328900 0.000322 -0.000009 1.688680 0.884938 -62.371400 -22.291500 -0.000108 -0.000004 19.545400 5.520510 -7.383860 -2.192480 -6.469440 -0.000000 -179.224000 -6.618890 -20.049900 39.081100 -0.000007 -0.000012 -0.162523 0.158201 45.772600 40.985400 -0.000006 -0.000013 -2.971160 12.398500 -71.008500 11.754300 -0.000000 0.000003 -0.000299 -0.002597 -16.674300 -2.192510 6.469440 -0.000001 172.838000 -5.951310 -175.852000 -39.081100 -0.002282 -0.040193 0.025061 -0.014808 55.859800 -40.985400 0.000008 0.000006 19.364700 17.391100 -61.534500 -11.754300 -0.000006 -0.000006 -0.180365 -0.611449 -42.642500
0.000000 0.000000 0.000000 0.000000 0.000000 -0.000000 131.319000 85.731200 157.395000 103.073000 -51.463500 15.810700 15.735700 0.000005 -0.000001 98.967200 84.134300 -99.599400 8.984550 -0.406207 -0.000000 3.834170 1.847730 -1.324850 16.377300 -0.000001 -0.000001 -2.173570 -6.294370 3.281850 6.456720 -0.000001 -0.000000 -8.788380 -9.351010 6.492560 12.994200 -0.242716 4.980390 -91.059700 3.463450 -72.977200 5.348090 -0.000007 -0.000001 -74.630200 25.042300 7.133870 24.328600 0.000019 0.000005 0.704202 31.574600 -1.346170 22.291600 -0.000001 0.000005 2.656780 5.110570 4.872820 12.994500 -0.242716 -4.980390 88.795100 9.440120 -82.692600 -5.348130 -0.000001 -0.000004 -52.311900 48.582200 -31.850600 -24.328900 0.000322 -0.000009 1.291440 0.779154 -58.898200 -22.291500 -0.000108 -0.000004 19.501300 5.541770 -8.323720 -2.192480 -6.469440 -0.000000 -179.623000 -7.202810 -16.461500 39.081100 -0.000007 -0.000012 -0.212759 0.198202 47.029300 40.985400 -0.000006 -0.000013 -3.050950 9.704590 -74.769700 11.754300 -0.000000 0.000003 -0.000522 -0.004130 -16.728300 -2.192510 6.469440 -0.000001 171.330000 -6.194680 177.194000 -39.081100 -0.002282 -0.040193 0.084199 -0.034999 66.643800 -40.985400 0.000008 0.000006 5.789220 15.939500 -47.453300 -11.754300 -0.000006 -0.000006 -0.079152 -0.389565 -32.742900
0.000000 0.000000 0.000000 0.000000 0.000000 -0.000000 129.210000 85.958900 159.499000 103.017000 -54.252300 16.373500 15.735700 0.000005 -0.000001 97.674300 84.060800 -98.292100 8.984550 -0.406207 -0.000000 4.016250 1.604130 -1.290510 16.377300 -0.000001 -0.000001 -2.005850 -6.039870 3.196610 6.456720 -0.000001 -0.000000 -8.535930 -8.942800 6.478160 12.994200 -0.242716 4.980390 -91.273600 4.156430 -72.947100 5.348090 -0.000007 -0.000001 -70.610600 25.982700 4.134250 24.328600 0.000019 0.000005 2.680510 28.817900 -5.549420 22.291600 -0.000001 0.000005 6.347360 5.126450 4.504490 12.994500 -0.242716 -4.980390 88.816500 9.568450 -82.915400 -5.348130 -0.000001 -0.000004 -54.886700 49.154000 -29.922400 -24.328900 0.000322 -0.000009 0.542287 0.441208 -50.877800 -22.291500 -0.000108 -0.000004 19.310000 5.531770 -7.870580 -2.192480 -6.469440 -0.000000 -179.042000 -7.906860 -12.704800 39.081100 -0.000007 -0.000012 -0.270697 0.262442 45.887700 40.985400 -0.000006 -0.000013 -3.474500 7.933030 -76.918200 11.754300 -0.000000 0.000003 -0.000552 -0.004321 -16.734900 -2.192510 6.469440 -0.000001 171.163000 -3.790080 171.070000 -39.081100 -0.002282 -0.040193 0.206846 -0.060442 73.479800 -40.985400 0.000008 0.000006 -1.702720 7.468920 -39.891500 -11.754300 -0.000006 -0.000006 -0.025007 -0.193594 -24.493400
0.000000 0.000000 0.000000 0.000000 0.000000 -0.000000 126.879000 86.826300 161.299000 102.202000 -56.300300 15.856700 15.735700 0.000005 -0.000001 94.730900 84.175100 -95.197100 8.984550 -0.406207 -0.000000 3.848730 0.975432 -0.964019 16.377300 -0.000001 -0.000001 -1.834710 -6.021330 3.020380 6.456720 -0.000001 -0.000000 -8.213710 -8.591280 6.337940 12.994200 -0.242716 4.980390 -91.418600 4.717440 -73.242000 5.348090 -0.000007 -0.000001 -66.218200 27.030200 0.276540 24.328600 0.000019 0.000005 3.966750 25.702000 -9.085800 22.291600 -0.000001 0.000005 10.205800 5.141830 4.140830 12.994500 -0.242716 -4.980390 88.812900 9.558340 -82.886800 -5.348130 -0.000001 -0.000004 -58.161300 48.941900 -27.535500 -24.328900 0.000322 -0.000009 0.576011 0.688509 -40.059600 -22.291500 -0.000108 -0.000004 18.561800 5.500240 -6.539410 -2.192480 -6.469440 -0.000000 -178.062000 -8.764940 -7.998980 39.081100 -0.000007 -0.000012 -0.263560 0.295600 41.721100 40.985400 -0.000006 -0.000013 -3.948170 7.002290 -77.320100 11.754300 -0.000000 0.000003 -0.000579 -0.004500 -16.741000 -2.192510 6.469440 -0.000001 172.226000 1.045330 167.513000 -39.081100 -0.002282 -0.040193 0.211926 -0.050865 76.317300 -40.985400 0.000008 0.000006 4.263520 2.716020 -47.193900 -11.754300 -0.000006 -0.000006 -0.022763 -0.182140 -24.020300
0.000000 0.000000 0.000000 0.000000 0.000000 -0.000000 124.766000 87.817300 162.777000 100.485000 -57.451700 13.709800 15.735700 0.000005 -0.000001 90.453800 84.549700 -90.578900 8.984550 -0.406207 -0.000000 3.134370 0.091303 -0.252503 16.377300 -0.000001 -0.000001 -1.841490 -6.323470 2.703460 6.456720 -0.000001 -0.000000 -7.793680 -8.599900 6.249940 12.994200 -0.242716 4.980390 -91.316500 4.563720 -73.889900 5.348090 -0.000007 -0.000001 -62.515400 26.906900 -4.413810 24.328600 0.000019 0.000005 4.802750 24.043500 -11.652700 22.291600 -0.000001 0.000005 13.046300 5.149270 3.962150 12.994500 -0.242716 -4.980390 88.829700 9.288430 -82.786800 -5.348130 -0.000001 -0.000004 -62.553100 46.230100 -23.404700 -24.328900 0.000322 -0.000009 1.538900 2.740130 -29.410800 -22.291500 -0.000108 -0.000004 17.430600 5.433680 -4.059260 -2.192480 -6.469440 -0.000000 -176.814000 -9.657600 -4.049120 39.081100 -0.000007 -0.000012 -0.228022 0.308507 36.469000 40.985400 -0.000006 -0.000013 -4.240630 6.896330 -76.651300 11.754300 -0.000000 0.000003 -0.000553 -0.004334 -16.735300 -2.192510 6.469440 -0.000001 173.479000 6.265130 163.221000 -39.081100 -0.002282 -0.040193 0.242318 -0.058974 76.156700 -40.985400 0.000008 0.000006 4.357130 1.949860 -49.989000 -11.754300 -0.000006 -0.000006 -0.022484 -0.180678 -23.959900
0.000000 0.000000 0.000000 0.000000 0.000000 -0.000000 122.820000 88.707800 164.198000 99.511100 -58.232000 12.014900 15.735700 0.000005 -0.000001 86.561000 84.894800 -86.467100 8.984550 -0.406207 -0.000000 2.426570 -0.616362 0.200648 16.377300 -0.000001 -0.000001 -2.018870 -6.798490 2.531080 6.456720 -0.000001 -0.000000 -7.587200 -8.914400 6.181420 12.994200 -0.242716 4.980390 -91.091200 3.953710 -74.557600 5.348090 -0.000007 -0.000001 -59.329600 25.427400 -9.750770 24.328600 0.000019 0.000005 5.434300 22.970300 -13.699800 22.291600 -0.000001 0.000005 13.683100 5.157460 3.764000 12.994500 -0.242716 -4.980390 88.842200 8.851290 -82.517100 -5.348130 -0.000001 -0.000004 -66.796400 40.363500 -18.144900 -24.328900 0.000322 -0.000009 1.803310 4.661410 -21.192900 -22.291500 -0.000108 -0.000004 16.678100 5.348270 -1.326400 -2.192480 -6.469440 -0.000000 -176.385000 -10.441700 -1.232650 39.081100 -0.000007 -0.000012 -0.043933 0.069295 32.375300 40.985400 -0.000006 -0.000013 -2.694190 6.469510 -74.852600 11.754300 -0.000000 0.000003 -0.959690 -1.300480 -17.394800 -2.192510 6.469440 -0.000001 174.278000 10.487500 159.371000 -39.081100 -0.002282 -0.040193 0.245306 -0.070619 73.748200 -40.985400 0.000008 0.000006 3.819420 5.941720 -53.977900 -11.754300 -0.000006 -0.000006 -0.021817 -0.177150 -23.814400
